<svg id="Capa_1" data-name="Capa 1" xmlns="http://www.w3.org/2000/svg" viewBox="0 0 763.3 145.02"><defs><style>.cls-1{fill:#ff006e;}</style></defs><title>intelcomp</title><path d="M149.27,107.72H128.62V42h20.65Z"/><path d="M165.33,42H186v10.7c5.1-7.64,12.24-11.72,20.78-11.72,12.75,0,21.8,9.3,21.8,22.43v44.36H207.91V69.35c0-7.39-4.34-12.23-11-12.23a13.28,13.28,0,0,0-11,5.48v45.12H165.33Z"/><path d="M250.86,57.88H238.12V42h12.74V23.72l20.65-4.21V42H289.1V57.88H271.51V83.37c0,5.87,2.3,7.91,8.67,7.91a27.64,27.64,0,0,0,8.41-1.41v16.7a57.28,57.28,0,0,1-14.15,2c-15.55,0-23.58-7.14-23.58-21.16Z"/><path d="M332.31,109c-19.37,0-34.67-14.91-34.67-34,0-19.37,14.28-34.16,33.14-34.16s32.38,14.4,32.38,34.93v4.46H317.91c1.91,7.39,7.9,12.36,15.42,12.36,5.48,0,10.07-1.91,13-5.48L360,98.42C351.43,105.94,343.4,109,332.31,109Zm-14.4-40.53H344c-1.66-7.14-6.76-11.6-13.38-11.6S319.57,61.19,317.91,68.46Z"/><path d="M396.68,107.72H376V16.58l20.65-3.19Z"/><path d="M458.38,84.65l12.23,12.11A34.56,34.56,0,0,1,443.85,109c-19.25,0-34-14.78-34-34s14.79-34,34-34c10.83,0,20.77,4.33,27.4,12.11L458.63,65.66c-4.2-5-8.41-7.14-14-7.14-8.16,0-14.28,7-14.28,16.44s6.25,16.19,14.79,16.19A15.93,15.93,0,0,0,458.38,84.65Z"/><path d="M510.89,40.93c19.63,0,34.42,14.66,34.42,34s-14.91,34-34.42,34S476.6,94.21,476.6,75,491.39,40.93,510.89,40.93Zm14.28,34c0-9.81-6-16.82-14.28-16.82s-14.15,7-14.15,16.82,5.87,16.57,14.15,16.57S525.17,84.65,525.17,75Z"/><path d="M558.44,42h20.65V52.4c4.84-7.52,11.47-11.47,19.5-11.47a19.47,19.47,0,0,1,18.48,12.23c5.1-7.9,12.49-12.23,21.54-12.23,12.11,0,20.65,9.56,20.65,23.07v43.72H638.61V68.08c0-6.63-4-11-9.81-11-3.83,0-6.88,1.53-9.56,5.09v45.51H598.59V68.08c0-6.63-4-11-9.82-11-3.82,0-7,1.65-9.68,5.09v45.51H558.44Z"/><path d="M674.81,42h20.4v9.17a24.28,24.28,0,0,1,19.5-9.56c16.19,0,29.06,14.92,29.06,33.4s-13.51,33.14-30.59,33.14a22.91,22.91,0,0,1-17.72-7.65v34.68H674.81Zm20.65,22V85.92a16.92,16.92,0,0,0,12.37,5.23c9,0,15.68-6.88,15.68-16.32s-6.76-16.18-15.68-16.18A16,16,0,0,0,695.46,64Z"/><rect class="cls-1" x="19.53" y="9.9" width="22.11" height="22.13"/><rect class="cls-1" x="58.48" y="9.9" width="53.14" height="22.11"/><polygon class="cls-1" points="111.62 85.56 111.62 107.67 19.53 107.67 19.53 48.73 41.64 48.73 41.64 85.56 111.62 85.56"/><rect class="cls-1" x="41.58" y="48.73" width="0.06" height="22.3"/><path d="M127.93,20.91a11,11,0,0,1,22,0,11,11,0,0,1-22,0Z"/></svg>