<svg id="Capa_1" data-name="Capa 1" xmlns="http://www.w3.org/2000/svg" viewBox="0 0 763.3 145.02"><defs><style>.cls-1{fill:#fff;}.cls-2{fill:#ff006e;}</style></defs><title>intelcomp-blanco</title><path class="cls-1" d="M173.36,104.07H154.85V45.12h18.51Z"/><path class="cls-1" d="M187.76,45.12h18.5v9.59c4.57-6.85,11-10.51,18.63-10.51,11.42,0,19.54,8.34,19.54,20.11v39.76H225.92V69.68c0-6.63-3.89-11-9.83-11a11.93,11.93,0,0,0-9.83,4.91v40.45h-18.5Z"/><path class="cls-1" d="M264.42,59.4H253V45.12h11.43V28.78L282.93,25V45.12H298.7V59.4H282.93V82.25c0,5.25,2.06,7.08,7.77,7.08a24.79,24.79,0,0,0,7.54-1.26v15a51.42,51.42,0,0,1-12.68,1.83c-13.94,0-21.14-6.4-21.14-19Z"/><path class="cls-1" d="M337.43,105.21c-17.37,0-31.08-13.36-31.08-30.5,0-17.37,12.8-30.62,29.71-30.62s29,12.91,29,31.3v4H324.52c1.71,6.63,7.08,11.08,13.82,11.08,4.91,0,9-1.71,11.66-4.91l12.22,10.17C354.57,102.47,347.37,105.21,337.43,105.21ZM324.52,68.88h23.42c-1.49-6.4-6.06-10.4-12-10.4S326,62.37,324.52,68.88Z"/><path class="cls-1" d="M395.13,104.07H376.62V22.38l18.51-2.86Z"/><path class="cls-1" d="M450.42,83.39l11,10.85a31,31,0,0,1-24,11,30,30,0,0,1-30.51-30.5A30,30,0,0,1,437.4,44.2,31.9,31.9,0,0,1,462,55.06L450.65,66.37c-3.77-4.46-7.54-6.4-12.57-6.4-7.31,0-12.79,6.28-12.79,14.74s5.6,14.51,13.25,14.51A14.24,14.24,0,0,0,450.42,83.39Z"/><path class="cls-1" d="M497.5,44.2c17.59,0,30.84,13.14,30.84,30.51s-13.36,30.5-30.84,30.5S466.76,92,466.76,74.71,480,44.2,497.5,44.2Zm12.79,30.51c0-8.8-5.37-15.08-12.79-15.08s-12.69,6.28-12.69,15.08,5.26,14.85,12.69,14.85S510.29,83.39,510.29,74.71Z"/><path class="cls-1" d="M540.11,45.12h18.51v9.36C563,47.74,568.9,44.2,576.1,44.2a17.47,17.47,0,0,1,16.57,11c4.57-7.08,11.2-11,19.31-11,10.85,0,18.51,8.57,18.51,20.68v39.19H612V68.54c0-5.94-3.55-9.83-8.8-9.83-3.43,0-6.17,1.37-8.57,4.57v40.79H576.1V68.54c0-5.94-3.54-9.83-8.8-9.83-3.42,0-6.28,1.49-8.68,4.57v40.79H540.11Z"/><path class="cls-1" d="M644.42,45.12h18.29v8.22a21.76,21.76,0,0,1,17.48-8.57c14.51,0,26,13.37,26,29.94s-12.11,29.7-27.42,29.7a20.59,20.59,0,0,1-15.89-6.85v31.08H644.42Zm18.51,19.76V84.53A15.19,15.19,0,0,0,674,89.22c8.11,0,14.05-6.17,14.05-14.63S682,60.08,674,60.08A14.29,14.29,0,0,0,662.93,64.88Z"/><rect class="cls-2" x="57.07" y="16.39" width="19.82" height="19.84"/><rect class="cls-2" x="91.98" y="16.39" width="47.63" height="19.82"/><polygon class="cls-2" points="139.61 84.21 139.61 104.03 57.07 104.03 57.07 51.2 76.88 51.2 76.88 84.21 139.61 84.21"/><rect class="cls-2" x="76.83" y="51.2" width="0.05" height="19.99"/><path class="cls-1" d="M154.23,26.26a9.88,9.88,0,0,1,19.75,0,9.88,9.88,0,0,1-19.75,0Z"/></svg>